<svg width="2033" height="2033" viewBox="0 0 2033 2033" fill="none" xmlns="http://www.w3.org/2000/svg">
<path d="M1167.66 635.267C1070.32 537.578 912.483 537.578 815.146 635.267L656.053 794.934C646.649 804.383 646.649 819.597 656.053 829.046L815.146 988.713C912.483 1086.4 1070.32 1086.4 1167.66 988.873C1265.15 891.343 1265.15 732.957 1167.66 635.267ZM1130.04 941.949C1058.57 1013.7 942.578 1013.7 871.103 941.949L754.017 824.562C747.12 817.675 747.12 806.465 754.017 799.418L870.947 682.191C942.421 610.445 1058.41 610.445 1129.88 682.191C1201.52 753.937 1201.52 870.203 1130.04 941.949Z" fill="#00B3FF"/>
<path d="M1376.12 795.094L1306.05 723.508C1301.82 719.184 1294.77 723.188 1296.18 729.113C1308.25 783.724 1308.25 840.736 1296.18 895.346C1294.92 901.272 1301.98 905.115 1306.05 900.952L1376.12 829.366C1385.36 819.757 1385.36 804.543 1376.12 795.094Z" fill="#00B3FF"/>
<path d="M1001.35 937.625C1069.13 937.625 1124.08 881.484 1124.08 812.23C1124.08 742.976 1069.13 686.835 1001.35 686.835C933.567 686.835 878.62 742.976 878.62 812.23C878.62 881.484 933.567 937.625 1001.35 937.625Z" fill="#00B3FF"/>
<path d="M495 1362.08C495 1351.41 496.8 1342.21 500.401 1334.48C504.002 1326.76 509.043 1320.14 515.525 1314.62C522.006 1309.1 529.568 1305.05 538.21 1302.48C546.852 1299.9 556.574 1298.43 566.656 1298.43C579.259 1298.43 590.422 1300.64 600.504 1305.05C610.226 1309.47 618.508 1315.35 624.63 1323.08C630.751 1315.35 638.673 1309.47 648.395 1305.05C658.117 1300.64 669.28 1298.43 681.883 1298.43C691.965 1298.43 701.327 1299.9 709.969 1302.48C718.611 1305.05 726.173 1309.1 732.655 1314.62C739.136 1320.14 744.177 1326.76 747.778 1334.48C751.379 1342.21 753.179 1351.41 753.179 1362.08V1467.3H702.408V1376.79C702.408 1365.76 700.247 1358.03 695.926 1353.25C691.605 1348.46 685.484 1346.26 677.202 1346.26C668.92 1346.26 662.438 1349.2 657.037 1354.72C651.996 1360.24 649.475 1369.07 649.475 1381.58V1467.67H598.704V1381.58C598.704 1369.44 596.183 1360.61 591.142 1354.72C586.101 1349.2 579.619 1346.26 571.338 1346.26C563.416 1346.26 556.934 1348.46 552.613 1353.25C547.932 1358.03 545.772 1365.76 545.772 1376.79V1467.3H495V1362.08Z" fill="#00B3FF"/>
<path d="M795.309 1259.06C795.309 1250.97 797.829 1243.98 803.23 1238.46C808.632 1232.94 815.113 1230 823.395 1230C831.317 1230 838.158 1232.94 843.56 1238.46C848.961 1243.98 851.842 1250.97 851.842 1259.06C851.842 1267.16 848.961 1274.15 843.56 1279.67C838.158 1285.19 831.317 1287.76 823.395 1287.76C815.473 1287.76 808.632 1285.19 803.23 1279.67C798.189 1273.78 795.309 1267.16 795.309 1259.06ZM798.189 1326.02C798.189 1317.56 800.71 1311.68 805.391 1308.36C810.072 1305.05 816.553 1303.21 824.475 1303.21C830.237 1303.21 835.278 1303.95 839.959 1305.42C844.64 1306.89 847.521 1307.63 848.961 1308V1467.67H798.189V1326.02Z" fill="#00B3FF"/>
<path d="M895.772 1252.81C895.772 1244.35 898.293 1238.46 902.974 1235.15C907.655 1231.84 914.137 1230 922.059 1230C927.82 1230 932.861 1230.74 937.542 1232.21C942.223 1233.68 945.104 1234.41 946.544 1234.78V1467.3H895.772V1252.81Z" fill="#00B3FF"/>
<path d="M1039.44 1467.3C1032.96 1455.53 1026.48 1443.39 1020.36 1430.88C1014.24 1418.37 1008.48 1406.59 1003.43 1395.93C998.393 1385.26 994.072 1375.69 990.832 1368.33C987.591 1360.61 985.431 1355.82 984.35 1353.62C982.55 1349.2 980.749 1344.42 978.949 1339.27C976.789 1333.75 976.068 1328.97 976.068 1324.92C976.068 1319.03 978.229 1313.88 982.55 1309.47C986.871 1305.42 992.992 1303.21 1001.63 1303.21C1008.48 1303.21 1013.88 1303.95 1018.2 1305.42C1022.52 1306.89 1024.68 1307.63 1025.4 1308C1029 1318.67 1032.6 1329.33 1036.92 1340C1040.88 1350.67 1044.84 1360.61 1048.44 1369.8C1052.05 1379 1055.29 1387.1 1058.53 1394.09C1061.41 1401.08 1063.57 1405.86 1065.01 1408.8C1066.45 1405.86 1068.25 1401.08 1071.13 1394.45C1074.01 1387.83 1076.89 1380.11 1080.13 1372.01C1083.37 1363.92 1086.61 1355.46 1089.85 1347.36C1093.1 1339.27 1095.98 1331.91 1098.14 1326.39C1099.58 1323.08 1100.66 1320.14 1102.46 1317.19C1103.9 1314.25 1106.06 1312.04 1108.22 1309.84C1110.38 1307.63 1113.26 1306.16 1116.14 1305.05C1119.38 1303.95 1123.34 1303.58 1127.66 1303.58C1131.98 1303.58 1135.58 1303.95 1139.19 1305.05C1142.43 1305.79 1145.67 1306.89 1148.19 1308C1150.71 1309.1 1152.87 1310.2 1154.31 1310.94C1155.75 1312.04 1156.83 1312.41 1157.19 1312.78C1156.47 1316.83 1154.31 1322.34 1151.07 1330.44C1147.83 1338.16 1144.23 1347.36 1139.91 1357.3C1135.58 1367.23 1130.9 1377.9 1125.86 1388.94C1120.82 1399.97 1115.78 1410.64 1111.1 1420.94C1106.42 1431.24 1101.74 1440.44 1097.42 1448.9C1093.1 1457 1089.85 1463.62 1087.69 1468.04H1039.44V1467.3Z" fill="#00B3FF"/>
<path d="M1234.25 1390.78C1234.25 1413.22 1243.97 1424.25 1263.77 1424.25C1283.58 1424.25 1293.3 1413.22 1293.3 1390.78V1326.02C1293.3 1317.56 1295.82 1311.68 1300.5 1308.36C1305.18 1305.05 1311.67 1303.21 1319.59 1303.21C1325.35 1303.21 1330.39 1303.95 1335.07 1305.42C1339.75 1306.89 1342.63 1307.63 1344.07 1308V1400.34C1344.07 1412.48 1341.91 1422.78 1337.95 1431.61C1333.99 1440.44 1328.23 1447.8 1321.03 1453.69C1313.83 1459.57 1305.54 1463.99 1295.46 1466.93C1285.74 1469.87 1274.94 1471.35 1263.77 1471.35C1252.25 1471.35 1241.81 1469.87 1232.09 1466.93C1222.37 1463.99 1213.72 1459.57 1206.52 1453.69C1199.32 1447.8 1193.92 1440.44 1189.6 1431.61C1185.64 1422.78 1183.48 1412.11 1183.48 1400.34V1326.02C1183.48 1317.56 1186 1311.68 1190.68 1308.36C1195.36 1305.05 1201.84 1303.21 1209.76 1303.21C1215.52 1303.21 1220.56 1303.95 1225.25 1305.42C1229.93 1306.89 1232.81 1307.63 1234.25 1308V1390.78Z" fill="#00B3FF"/>
<path d="M1395.57 1417.26C1397.37 1418.73 1399.89 1420.21 1403.85 1422.05C1407.81 1423.89 1412.49 1425.73 1417.89 1427.2C1423.29 1428.67 1429.41 1430.14 1436.25 1431.24C1443.1 1432.35 1450.3 1433.08 1457.86 1433.08C1466.5 1433.08 1472.98 1432.35 1477.3 1430.51C1481.63 1429.04 1483.79 1426.09 1483.79 1422.05C1483.79 1417.63 1481.99 1414.69 1478.38 1413.22C1474.78 1411.74 1469.02 1410.27 1461.1 1409.17L1444.54 1407.33C1436.25 1406.23 1428.33 1404.75 1420.77 1402.55C1413.21 1400.34 1406.37 1397.4 1400.61 1393.35C1394.85 1389.3 1390.16 1384.15 1386.92 1377.9C1383.68 1371.64 1381.88 1363.92 1381.88 1354.35C1381.88 1346.26 1383.32 1338.9 1386.2 1332.28C1389.08 1325.65 1393.4 1319.77 1399.53 1314.62C1405.65 1309.47 1413.57 1305.42 1422.93 1302.84C1432.29 1299.9 1443.82 1298.43 1456.78 1298.43C1470.1 1298.43 1481.26 1299.17 1490.99 1301.01C1500.71 1302.84 1508.63 1305.42 1515.83 1309.1C1519.79 1311.31 1523.03 1313.88 1525.56 1316.82C1528.08 1319.77 1529.16 1323.82 1529.16 1328.23C1529.16 1331.54 1528.44 1334.85 1527 1337.43C1525.56 1340 1524.11 1342.58 1522.31 1344.42C1520.51 1346.26 1518.71 1347.73 1517.27 1348.83C1515.83 1349.94 1514.75 1350.67 1514.39 1350.67C1513.67 1349.94 1511.87 1348.83 1509.35 1346.99C1506.47 1345.15 1502.87 1343.68 1497.83 1341.84C1493.15 1340.37 1487.39 1338.9 1480.9 1337.43C1474.42 1335.96 1466.86 1335.59 1458.22 1335.59C1448.86 1335.59 1442.02 1336.69 1438.42 1338.9C1434.81 1341.11 1433.01 1344.05 1433.01 1347.73C1433.01 1351.41 1434.81 1353.98 1438.06 1355.46C1441.3 1356.93 1446.34 1358.4 1453.18 1359.5L1481.99 1363.55C1489.19 1364.65 1496.03 1366.12 1502.51 1368.33C1508.99 1370.54 1515.11 1373.48 1520.15 1377.16C1525.2 1381.21 1529.52 1385.99 1532.4 1391.88C1535.28 1397.76 1537.08 1405.12 1537.08 1413.95C1537.08 1431.98 1530.24 1445.96 1516.91 1456.26C1503.59 1466.19 1484.87 1471.35 1461.1 1471.35C1448.86 1471.35 1437.7 1470.61 1427.97 1468.77C1418.25 1466.93 1410.33 1465.09 1403.13 1462.88C1396.29 1460.68 1390.52 1458.1 1386.2 1455.89C1381.88 1453.32 1379 1451.48 1377.2 1450.37L1395.57 1417.26Z" fill="#00B3FF"/>
</svg>
